<svg viewBox="0 0 64 64" fill="none" xmlns="http://www.w3.org/2000/svg"><rect x="8" y="8" width="48" height="48" rx="10" fill="#FFFFFF" stroke="#0F172A" stroke-width="2"/><rect x="14" y="14" width="14" height="14" rx="3" fill="#0F172A"/><rect x="17" y="17" width="8" height="8" rx="1" fill="#FFFFFF"/><rect x="19" y="19" width="4" height="4" fill="#0F172A"/><rect x="36" y="14" width="14" height="14" rx="3" fill="#0F172A"/><rect x="39" y="17" width="8" height="8" rx="1" fill="#FFFFFF"/><rect x="41" y="19" width="4" height="4" fill="#0F172A"/><rect x="14" y="36" width="14" height="14" rx="3" fill="#0F172A"/><rect x="17" y="39" width="8" height="8" rx="1" fill="#FFFFFF"/><rect x="19" y="41" width="4" height="4" fill="#0F172A"/><rect x="34" y="34" width="5" height="5" fill="#3B82F6"/><rect x="43" y="34" width="7" height="5" fill="#0F172A"/><rect x="34" y="43" width="7" height="7" fill="#0F172A"/><rect x="45" y="43" width="5" height="5" fill="#10B981"/></svg>